# xmcd CD database file
#
# Track frame offsets:
#	187
#	6612
#	27410
#	45195
#	66087
#	77420
#	94490
#	105522
#	119870
#	142292
#	162577
#
# Disc length: 2235 seconds
#
# Revision: 4
# Processed by: cddbd v1.4PL0 Copyright (c) Steve Scherf et al.
# Submitted via: CDex 1.51
#
DISCID=9b08b90b
DTITLE=John Denver - Whose Garden Was This
DYEAR=1970
DGENRE=Pop
TTITLE0=Tremble If You Must
TTITLE1=Sail Away Home
TTITLE2=The Night They Drove Old Dixie Down
TTITLE3=Mr. Bojangles
TTITLE4=I Wish I Could Have Been There
TTITLE5=Whose Garden Was This
TTITLE6=The Game Is Over
TTITLE7=Eleanor Rigby
TTITLE8=Old Folks
TTITLE9=Golden Slumbers - Sweet Sweet Life - Tremble If You Must
TTITLE10=Jingle Bells
EXTD=YEAR: 1970
EXTT0=
EXTT1=
EXTT2=
EXTT3=
EXTT4=
EXTT5=
EXTT6=
EXTT7=
EXTT8=
EXTT9=
EXTT10=
PLAYORDER=
